<svg xmlns="http://www.w3.org/2000/svg" version="1.1" xmlns:xlink="http://www.w3.org/1999/xlink" xmlns:svgjs="http://svgjs.dev/svgjs" width="1440" height="560" preserveAspectRatio="none" viewBox="0 0 1440 560"><g mask="url(&quot;#SvgjsMask1000&quot;)" fill="none"><rect width="1440" height="560" x="0" y="0" fill="#0e2a47"></rect><path d="M-81.53 487.72L-81.53 487.72" stroke="#132e65" stroke-width="1.5"></path><path d="M-81.53 487.72L63.7 507.09" stroke="#132e65" stroke-width="1.5"></path><path d="M-81.53 487.72L-40.29 689.53" stroke="#132e65" stroke-width="1.5"></path><path d="M-81.53 487.72L63.98 340.3" stroke="#132e65" stroke-width="1.5"></path><path d="M-81.53 487.72L80.17 676.52" stroke="#132e65" stroke-width="1.5"></path><path d="M-40.29 689.53L-40.29 689.53" stroke="#132e65" stroke-width="1.5"></path><path d="M-40.29 689.53L80.17 676.52" stroke="#132e65" stroke-width="1.5"></path><path d="M-40.29 689.53L63.7 507.09" stroke="#132e65" stroke-width="1.5"></path><path d="M-40.29 689.53L194.53 670.75" stroke="#132e65" stroke-width="1.5"></path><path d="M-40.29 689.53L200.17 495.56" stroke="#132e65" stroke-width="1.5"></path><path d="M63.98 340.3L63.98 340.3" stroke="#132e65" stroke-width="1.5"></path><path d="M63.98 340.3L222.06 392.45" stroke="#132e65" stroke-width="1.5"></path><path d="M63.98 340.3L63.7 507.09" stroke="#132e65" stroke-width="1.5"></path><path d="M63.7 507.09L63.7 507.09" stroke="#132e65" stroke-width="1.5"></path><path d="M63.7 507.09L200.17 495.56" stroke="#132e65" stroke-width="1.5"></path><path d="M63.7 507.09L80.17 676.52" stroke="#132e65" stroke-width="1.5"></path><path d="M63.7 507.09L222.06 392.45" stroke="#132e65" stroke-width="1.5"></path><path d="M80.17 676.52L80.17 676.52" stroke="#132e65" stroke-width="1.5"></path><path d="M80.17 676.52L194.53 670.75" stroke="#132e65" stroke-width="1.5"></path><path d="M80.17 676.52L200.17 495.56" stroke="#132e65" stroke-width="1.5"></path><path d="M222.06 392.45L222.06 392.45" stroke="#132e65" stroke-width="1.5"></path><path d="M222.06 392.45L200.17 495.56" stroke="#132e65" stroke-width="1.5"></path><path d="M222.06 392.45L391.37 398.11" stroke="#132e65" stroke-width="1.5"></path><path d="M222.06 392.45L194.53 670.75" stroke="#132e65" stroke-width="1.5"></path><path d="M200.17 495.56L200.17 495.56" stroke="#132e65" stroke-width="1.5"></path><path d="M200.17 495.56L194.53 670.75" stroke="#132e65" stroke-width="1.5"></path><path d="M194.53 670.75L194.53 670.75" stroke="#132e65" stroke-width="1.5"></path><path d="M194.53 670.75L391.51 705.17" stroke="#132e65" stroke-width="1.5"></path><path d="M194.53 670.75L63.7 507.09" stroke="#132e65" stroke-width="1.5"></path><path d="M391.37 398.11L391.37 398.11" stroke="#132e65" stroke-width="1.5"></path><path d="M391.37 398.11L541.03 387.05" stroke="#132e65" stroke-width="1.5"></path><path d="M391.37 398.11L513.79 505.37" stroke="#132e65" stroke-width="1.5"></path><path d="M391.37 398.11L200.17 495.56" stroke="#132e65" stroke-width="1.5"></path><path d="M391.51 705.17L391.51 705.17" stroke="#132e65" stroke-width="1.5"></path><path d="M391.51 705.17L506.98 680.73" stroke="#132e65" stroke-width="1.5"></path><path d="M541.03 387.05L541.03 387.05" stroke="#132e65" stroke-width="1.5"></path><path d="M541.03 387.05L513.79 505.37" stroke="#132e65" stroke-width="1.5"></path><path d="M541.03 387.05L657.42 494.54" stroke="#132e65" stroke-width="1.5"></path><path d="M513.79 505.37L513.79 505.37" stroke="#132e65" stroke-width="1.5"></path><path d="M513.79 505.37L657.42 494.54" stroke="#132e65" stroke-width="1.5"></path><path d="M506.98 680.73L506.98 680.73" stroke="#132e65" stroke-width="1.5"></path><path d="M506.98 680.73L655.94 647.61" stroke="#132e65" stroke-width="1.5"></path><path d="M506.98 680.73L513.79 505.37" stroke="#132e65" stroke-width="1.5"></path><path d="M506.98 680.73L657.42 494.54" stroke="#132e65" stroke-width="1.5"></path><path d="M657.42 494.54L657.42 494.54" stroke="#132e65" stroke-width="1.5"></path><path d="M657.42 494.54L809.17 494.22" stroke="#132e65" stroke-width="1.5"></path><path d="M657.42 494.54L655.94 647.61" stroke="#132e65" stroke-width="1.5"></path><path d="M657.42 494.54L833.43 386.3" stroke="#132e65" stroke-width="1.5"></path><path d="M655.94 647.61L655.94 647.61" stroke="#132e65" stroke-width="1.5"></path><path d="M655.94 647.61L846.1 672.02" stroke="#132e65" stroke-width="1.5"></path><path d="M655.94 647.61L513.79 505.37" stroke="#132e65" stroke-width="1.5"></path><path d="M655.94 647.61L809.17 494.22" stroke="#132e65" stroke-width="1.5"></path><path d="M655.94 647.61L391.51 705.17" stroke="#132e65" stroke-width="1.5"></path><path d="M811.77 259.7L811.77 259.7" stroke="#132e65" stroke-width="1.5"></path><path d="M811.77 259.7L833.43 386.3" stroke="#132e65" stroke-width="1.5"></path><path d="M811.77 259.7L945.04 206.65" stroke="#132e65" stroke-width="1.5"></path><path d="M811.77 259.7L989.82 351.93" stroke="#132e65" stroke-width="1.5"></path><path d="M811.77 259.7L809.17 494.22" stroke="#132e65" stroke-width="1.5"></path><path d="M833.43 386.3L833.43 386.3" stroke="#132e65" stroke-width="1.5"></path><path d="M833.43 386.3L809.17 494.22" stroke="#132e65" stroke-width="1.5"></path><path d="M833.43 386.3L989.82 351.93" stroke="#132e65" stroke-width="1.5"></path><path d="M809.17 494.22L809.17 494.22" stroke="#132e65" stroke-width="1.5"></path><path d="M809.17 494.22L976.41 544.86" stroke="#132e65" stroke-width="1.5"></path><path d="M846.1 672.02L846.1 672.02" stroke="#132e65" stroke-width="1.5"></path><path d="M846.1 672.02L985.53 685.82" stroke="#132e65" stroke-width="1.5"></path><path d="M846.1 672.02L809.17 494.22" stroke="#132e65" stroke-width="1.5"></path><path d="M846.1 672.02L976.41 544.86" stroke="#132e65" stroke-width="1.5"></path><path d="M1003.44 -94.8L1003.44 -94.8" stroke="#132e65" stroke-width="1.5"></path><path d="M1003.44 -94.8L978.24 53.16" stroke="#132e65" stroke-width="1.5"></path><path d="M1003.44 -94.8L1158.2 -49.58" stroke="#132e65" stroke-width="1.5"></path><path d="M1003.44 -94.8L1088.28 106.43" stroke="#132e65" stroke-width="1.5"></path><path d="M1003.44 -94.8L1290.86 -82.2" stroke="#132e65" stroke-width="1.5"></path><path d="M978.24 53.16L978.24 53.16" stroke="#132e65" stroke-width="1.5"></path><path d="M978.24 53.16L1088.28 106.43" stroke="#132e65" stroke-width="1.5"></path><path d="M978.24 53.16L945.04 206.65" stroke="#132e65" stroke-width="1.5"></path><path d="M978.24 53.16L1158.2 -49.58" stroke="#132e65" stroke-width="1.5"></path><path d="M978.24 53.16L1120.05 259.35" stroke="#132e65" stroke-width="1.5"></path><path d="M978.24 53.16L811.77 259.7" stroke="#132e65" stroke-width="1.5"></path><path d="M945.04 206.65L945.04 206.65" stroke="#132e65" stroke-width="1.5"></path><path d="M945.04 206.65L989.82 351.93" stroke="#132e65" stroke-width="1.5"></path><path d="M945.04 206.65L1088.28 106.43" stroke="#132e65" stroke-width="1.5"></path><path d="M945.04 206.65L1120.05 259.35" stroke="#132e65" stroke-width="1.5"></path><path d="M989.82 351.93L989.82 351.93" stroke="#132e65" stroke-width="1.5"></path><path d="M989.82 351.93L1123.64 362.17" stroke="#132e65" stroke-width="1.5"></path><path d="M989.82 351.93L1120.05 259.35" stroke="#132e65" stroke-width="1.5"></path><path d="M976.41 544.86L976.41 544.86" stroke="#132e65" stroke-width="1.5"></path><path d="M976.41 544.86L1098.33 554.05" stroke="#132e65" stroke-width="1.5"></path><path d="M976.41 544.86L985.53 685.82" stroke="#132e65" stroke-width="1.5"></path><path d="M976.41 544.86L1096.2 672.71" stroke="#132e65" stroke-width="1.5"></path><path d="M976.41 544.86L989.82 351.93" stroke="#132e65" stroke-width="1.5"></path><path d="M985.53 685.82L985.53 685.82" stroke="#132e65" stroke-width="1.5"></path><path d="M985.53 685.82L1096.2 672.71" stroke="#132e65" stroke-width="1.5"></path><path d="M985.53 685.82L1098.33 554.05" stroke="#132e65" stroke-width="1.5"></path><path d="M985.53 685.82L809.17 494.22" stroke="#132e65" stroke-width="1.5"></path><path d="M985.53 685.82L1246.02 689.89" stroke="#132e65" stroke-width="1.5"></path><path d="M1158.2 -49.58L1158.2 -49.58" stroke="#132e65" stroke-width="1.5"></path><path d="M1158.2 -49.58L1290.86 -82.2" stroke="#132e65" stroke-width="1.5"></path><path d="M1158.2 -49.58L1088.28 106.43" stroke="#132e65" stroke-width="1.5"></path><path d="M1158.2 -49.58L1308.63 46.99" stroke="#132e65" stroke-width="1.5"></path><path d="M1088.28 106.43L1088.28 106.43" stroke="#132e65" stroke-width="1.5"></path><path d="M1088.28 106.43L1120.05 259.35" stroke="#132e65" stroke-width="1.5"></path><path d="M1120.05 259.35L1120.05 259.35" stroke="#132e65" stroke-width="1.5"></path><path d="M1120.05 259.35L1123.64 362.17" stroke="#132e65" stroke-width="1.5"></path><path d="M1120.05 259.35L1267.75 237.29" stroke="#132e65" stroke-width="1.5"></path><path d="M1123.64 362.17L1123.64 362.17" stroke="#132e65" stroke-width="1.5"></path><path d="M1098.33 554.05L1098.33 554.05" stroke="#132e65" stroke-width="1.5"></path><path d="M1098.33 554.05L1096.2 672.71" stroke="#132e65" stroke-width="1.5"></path><path d="M1098.33 554.05L1123.64 362.17" stroke="#132e65" stroke-width="1.5"></path><path d="M1098.33 554.05L1246.02 689.89" stroke="#132e65" stroke-width="1.5"></path><path d="M1098.33 554.05L1309.68 558.21" stroke="#132e65" stroke-width="1.5"></path><path d="M1096.2 672.71L1096.2 672.71" stroke="#132e65" stroke-width="1.5"></path><path d="M1290.86 -82.2L1290.86 -82.2" stroke="#132e65" stroke-width="1.5"></path><path d="M1290.86 -82.2L1410.86 -65.94" stroke="#132e65" stroke-width="1.5"></path><path d="M1308.63 46.99L1308.63 46.99" stroke="#132e65" stroke-width="1.5"></path><path d="M1308.63 46.99L1290.86 -82.2" stroke="#132e65" stroke-width="1.5"></path><path d="M1267.75 237.29L1267.75 237.29" stroke="#132e65" stroke-width="1.5"></path><path d="M1267.75 237.29L1400.53 233.36" stroke="#132e65" stroke-width="1.5"></path><path d="M1267.75 237.29L1300.47 409.1" stroke="#132e65" stroke-width="1.5"></path><path d="M1267.75 237.29L1123.64 362.17" stroke="#132e65" stroke-width="1.5"></path><path d="M1300.47 409.1L1300.47 409.1" stroke="#132e65" stroke-width="1.5"></path><path d="M1300.47 409.1L1393.15 521.04" stroke="#132e65" stroke-width="1.5"></path><path d="M1300.47 409.1L1309.68 558.21" stroke="#132e65" stroke-width="1.5"></path><path d="M1300.47 409.1L1436.47 343.05" stroke="#132e65" stroke-width="1.5"></path><path d="M1300.47 409.1L1123.64 362.17" stroke="#132e65" stroke-width="1.5"></path><path d="M1309.68 558.21L1309.68 558.21" stroke="#132e65" stroke-width="1.5"></path><path d="M1309.68 558.21L1393.15 521.04" stroke="#132e65" stroke-width="1.5"></path><path d="M1309.68 558.21L1246.02 689.89" stroke="#132e65" stroke-width="1.5"></path><path d="M1246.02 689.89L1246.02 689.89" stroke="#132e65" stroke-width="1.5"></path><path d="M1246.02 689.89L1096.2 672.71" stroke="#132e65" stroke-width="1.5"></path><path d="M1246.02 689.89L1418.1 698.1" stroke="#132e65" stroke-width="1.5"></path><path d="M1246.02 689.89L1393.15 521.04" stroke="#132e65" stroke-width="1.5"></path><path d="M1410.86 -65.94L1410.86 -65.94" stroke="#132e65" stroke-width="1.5"></path><path d="M1400.53 233.36L1400.53 233.36" stroke="#132e65" stroke-width="1.5"></path><path d="M1400.53 233.36L1436.47 343.05" stroke="#132e65" stroke-width="1.5"></path><path d="M1400.53 233.36L1300.47 409.1" stroke="#132e65" stroke-width="1.5"></path><path d="M1400.53 233.36L1308.63 46.99" stroke="#132e65" stroke-width="1.5"></path><path d="M1436.47 343.05L1436.47 343.05" stroke="#132e65" stroke-width="1.5"></path><path d="M1436.47 343.05L1559.44 394.52" stroke="#132e65" stroke-width="1.5"></path><path d="M1393.15 521.04L1393.15 521.04" stroke="#132e65" stroke-width="1.5"></path><path d="M1418.1 698.1L1418.1 698.1" stroke="#132e65" stroke-width="1.5"></path><path d="M1418.1 698.1L1558.89 670.26" stroke="#132e65" stroke-width="1.5"></path><path d="M1539.91 -69.35L1539.91 -69.35" stroke="#132e65" stroke-width="1.5"></path><path d="M1539.91 -69.35L1410.86 -65.94" stroke="#132e65" stroke-width="1.5"></path><path d="M1539.91 -69.35L1585.62 107.45" stroke="#132e65" stroke-width="1.5"></path><path d="M1539.91 -69.35L1290.86 -82.2" stroke="#132e65" stroke-width="1.5"></path><path d="M1539.91 -69.35L1308.63 46.99" stroke="#132e65" stroke-width="1.5"></path><path d="M1539.91 -69.35L1400.53 233.36" stroke="#132e65" stroke-width="1.5"></path><path d="M1539.91 -69.35L1158.2 -49.58" stroke="#132e65" stroke-width="1.5"></path><path d="M1585.62 107.45L1585.62 107.45" stroke="#132e65" stroke-width="1.5"></path><path d="M1585.62 107.45L1400.53 233.36" stroke="#132e65" stroke-width="1.5"></path><path d="M1559.44 394.52L1559.44 394.52" stroke="#132e65" stroke-width="1.5"></path><path d="M1559.44 394.52L1553.87 535.33" stroke="#132e65" stroke-width="1.5"></path><path d="M1559.44 394.52L1393.15 521.04" stroke="#132e65" stroke-width="1.5"></path><path d="M1559.44 394.52L1400.53 233.36" stroke="#132e65" stroke-width="1.5"></path><path d="M1559.44 394.52L1300.47 409.1" stroke="#132e65" stroke-width="1.5"></path><path d="M1559.44 394.52L1558.89 670.26" stroke="#132e65" stroke-width="1.5"></path><path d="M1553.87 535.33L1553.87 535.33" stroke="#132e65" stroke-width="1.5"></path><path d="M1553.87 535.33L1558.89 670.26" stroke="#132e65" stroke-width="1.5"></path><path d="M1553.87 535.33L1393.15 521.04" stroke="#132e65" stroke-width="1.5"></path><path d="M1553.87 535.33L1418.1 698.1" stroke="#132e65" stroke-width="1.5"></path><path d="M1558.89 670.26L1558.89 670.26" stroke="#132e65" stroke-width="1.5"></path><path d="M1558.89 670.26L1393.15 521.04" stroke="#132e65" stroke-width="1.5"></path><path d="M1558.89 670.26L1309.68 558.21" stroke="#132e65" stroke-width="1.5"></path><circle r="5" cx="-81.53" cy="487.72" fill="#132e65"></circle><circle r="5" cx="-40.29" cy="689.53" fill="#132e65"></circle><circle r="5" cx="63.98" cy="340.3" fill="#132e65"></circle><circle r="5" cx="63.7" cy="507.09" fill="#132e65"></circle><circle r="5" cx="80.17" cy="676.52" fill="#132e65"></circle><circle r="5" cx="222.06" cy="392.45" fill="#132e65"></circle><circle r="5" cx="200.17" cy="495.56" fill="#132e65"></circle><circle r="5" cx="194.53" cy="670.75" fill="#132e65"></circle><circle r="5" cx="391.37" cy="398.11" fill="#132e65"></circle><circle r="5" cx="391.51" cy="705.17" fill="#132e65"></circle><circle r="5" cx="541.03" cy="387.05" fill="#132e65"></circle><circle r="5" cx="513.79" cy="505.37" fill="#132e65"></circle><circle r="5" cx="506.98" cy="680.73" fill="#132e65"></circle><circle r="5" cx="657.42" cy="494.54" fill="#132e65"></circle><circle r="5" cx="655.94" cy="647.61" fill="#132e65"></circle><circle r="5" cx="811.77" cy="259.7" fill="#132e65"></circle><circle r="5" cx="833.43" cy="386.3" fill="#132e65"></circle><circle r="5" cx="809.17" cy="494.22" fill="#132e65"></circle><circle r="5" cx="846.1" cy="672.02" fill="#132e65"></circle><circle r="5" cx="1003.44" cy="-94.8" fill="#132e65"></circle><circle r="5" cx="978.24" cy="53.16" fill="#132e65"></circle><circle r="5" cx="945.04" cy="206.65" fill="#132e65"></circle><circle r="5" cx="989.82" cy="351.93" fill="#132e65"></circle><circle r="5" cx="976.41" cy="544.86" fill="#132e65"></circle><circle r="5" cx="985.53" cy="685.82" fill="#132e65"></circle><circle r="5" cx="1158.2" cy="-49.58" fill="#132e65"></circle><circle r="5" cx="1088.28" cy="106.43" fill="#132e65"></circle><circle r="5" cx="1120.05" cy="259.35" fill="#132e65"></circle><circle r="5" cx="1123.64" cy="362.17" fill="#132e65"></circle><circle r="5" cx="1098.33" cy="554.05" fill="#132e65"></circle><circle r="5" cx="1096.2" cy="672.71" fill="#132e65"></circle><circle r="5" cx="1290.86" cy="-82.2" fill="#132e65"></circle><circle r="5" cx="1308.63" cy="46.99" fill="#132e65"></circle><circle r="5" cx="1267.75" cy="237.29" fill="#132e65"></circle><circle r="5" cx="1300.47" cy="409.1" fill="#132e65"></circle><circle r="5" cx="1309.68" cy="558.21" fill="#132e65"></circle><circle r="5" cx="1246.02" cy="689.89" fill="#132e65"></circle><circle r="5" cx="1410.86" cy="-65.94" fill="#132e65"></circle><circle r="5" cx="1400.53" cy="233.36" fill="#132e65"></circle><circle r="5" cx="1436.47" cy="343.05" fill="#132e65"></circle><circle r="5" cx="1393.15" cy="521.04" fill="#132e65"></circle><circle r="5" cx="1418.1" cy="698.1" fill="#132e65"></circle><circle r="5" cx="1539.91" cy="-69.35" fill="#132e65"></circle><circle r="5" cx="1585.62" cy="107.45" fill="#132e65"></circle><circle r="5" cx="1559.44" cy="394.52" fill="#132e65"></circle><circle r="5" cx="1553.87" cy="535.33" fill="#132e65"></circle><circle r="5" cx="1558.89" cy="670.26" fill="#132e65"></circle><path d="M194.65 703.65L194.65 703.65" stroke="hsl(228.5, 77.2%, 51.5%)" stroke-width="1.5"></path><path d="M194.65 703.65L61.22 647.65" stroke="hsl(228.5, 77.2%, 51.5%)" stroke-width="1.5"></path><path d="M194.65 703.65L91.07 546.93" stroke="hsl(228.5, 77.2%, 51.5%)" stroke-width="1.5"></path><path d="M194.65 703.65L245.79 507.09" stroke="hsl(228.5, 77.2%, 51.5%)" stroke-width="1.5"></path><path d="M194.65 703.65L386.6 556.7" stroke="hsl(228.5, 77.2%, 51.5%)" stroke-width="1.5"></path><path d="M386.6 556.7L386.6 556.7" stroke="hsl(228.5, 77.2%, 51.5%)" stroke-width="1.5"></path><path d="M386.6 556.7L503.85 528.61" stroke="hsl(228.5, 77.2%, 51.5%)" stroke-width="1.5"></path><path d="M386.6 556.7L245.79 507.09" stroke="hsl(228.5, 77.2%, 51.5%)" stroke-width="1.5"></path><path d="M386.6 556.7L532.9 677.88" stroke="hsl(228.5, 77.2%, 51.5%)" stroke-width="1.5"></path><path d="M386.6 556.7L91.07 546.93" stroke="hsl(228.5, 77.2%, 51.5%)" stroke-width="1.5"></path><path d="M678.7 654.2L678.7 654.2" stroke="hsl(228.5, 77.2%, 51.5%)" stroke-width="1.5"></path><path d="M678.7 654.2L707 544.99" stroke="hsl(228.5, 77.2%, 51.5%)" stroke-width="1.5"></path><path d="M678.7 654.2L812.63 648.19" stroke="hsl(228.5, 77.2%, 51.5%)" stroke-width="1.5"></path><path d="M678.7 654.2L532.9 677.88" stroke="hsl(228.5, 77.2%, 51.5%)" stroke-width="1.5"></path><path d="M1151.31 80.86L1151.31 80.86" stroke="hsl(228.5, 77.2%, 51.5%)" stroke-width="1.5"></path><path d="M1151.31 80.86L1286.48 105.32" stroke="hsl(228.5, 77.2%, 51.5%)" stroke-width="1.5"></path><path d="M1151.31 80.86L1112.86 215.96" stroke="hsl(228.5, 77.2%, 51.5%)" stroke-width="1.5"></path><path d="M1151.31 80.86L1272.3 207.31" stroke="hsl(228.5, 77.2%, 51.5%)" stroke-width="1.5"></path><path d="M1137.49 356.51L1137.49 356.51" stroke="hsl(228.5, 77.2%, 51.5%)" stroke-width="1.5"></path><path d="M1137.49 356.51L996.29 366.56" stroke="hsl(228.5, 77.2%, 51.5%)" stroke-width="1.5"></path><path d="M1137.49 356.51L1112.86 215.96" stroke="hsl(228.5, 77.2%, 51.5%)" stroke-width="1.5"></path><path d="M1137.49 356.51L1272.3 207.31" stroke="hsl(228.5, 77.2%, 51.5%)" stroke-width="1.5"></path><path d="M1137.49 356.51L1090.95 553.97" stroke="hsl(228.5, 77.2%, 51.5%)" stroke-width="1.5"></path><path d="M1137.49 356.51L1269.32 516.66" stroke="hsl(228.5, 77.2%, 51.5%)" stroke-width="1.5"></path><path d="M1137.49 356.51L1394.51 347.59" stroke="hsl(228.5, 77.2%, 51.5%)" stroke-width="1.5"></path><path d="M1117.62 657.3L1117.62 657.3" stroke="hsl(228.5, 77.2%, 51.5%)" stroke-width="1.5"></path><path d="M1117.62 657.3L1090.95 553.97" stroke="hsl(228.5, 77.2%, 51.5%)" stroke-width="1.5"></path><path d="M1117.62 657.3L1000.37 639.78" stroke="hsl(228.5, 77.2%, 51.5%)" stroke-width="1.5"></path><path d="M1117.62 657.3L1264.11 688.98" stroke="hsl(228.5, 77.2%, 51.5%)" stroke-width="1.5"></path><path d="M1264.11 688.98L1264.11 688.98" stroke="hsl(228.5, 77.2%, 51.5%)" stroke-width="1.5"></path><path d="M1264.11 688.98L1412.01 675.63" stroke="hsl(228.5, 77.2%, 51.5%)" stroke-width="1.5"></path><path d="M1264.11 688.98L1269.32 516.66" stroke="hsl(228.5, 77.2%, 51.5%)" stroke-width="1.5"></path><path d="M1264.11 688.98L1090.95 553.97" stroke="hsl(228.5, 77.2%, 51.5%)" stroke-width="1.5"></path><path d="M1264.11 688.98L1437.13 540.1" stroke="hsl(228.5, 77.2%, 51.5%)" stroke-width="1.5"></path><path d="M1405.86 -83.76L1405.86 -83.76" stroke="hsl(228.5, 77.2%, 51.5%)" stroke-width="1.5"></path><path d="M1405.86 -83.76L1445.7 49.01" stroke="hsl(228.5, 77.2%, 51.5%)" stroke-width="1.5"></path><path d="M1405.86 -83.76L1267.32 -71.62" stroke="hsl(228.5, 77.2%, 51.5%)" stroke-width="1.5"></path><path d="M1405.86 -83.76L1286.48 105.32" stroke="hsl(228.5, 77.2%, 51.5%)" stroke-width="1.5"></path><path d="M1405.86 -83.76L1551.51 92.9" stroke="hsl(228.5, 77.2%, 51.5%)" stroke-width="1.5"></path><path d="M1405.86 -83.76L1443.86 198.34" stroke="hsl(228.5, 77.2%, 51.5%)" stroke-width="1.5"></path><path d="M1405.86 -83.76L1151.31 80.86" stroke="hsl(228.5, 77.2%, 51.5%)" stroke-width="1.5"></path><path d="M1445.7 49.01L1445.7 49.01" stroke="hsl(228.5, 77.2%, 51.5%)" stroke-width="1.5"></path><path d="M1445.7 49.01L1551.51 92.9" stroke="hsl(228.5, 77.2%, 51.5%)" stroke-width="1.5"></path><path d="M1445.7 49.01L1443.86 198.34" stroke="hsl(228.5, 77.2%, 51.5%)" stroke-width="1.5"></path><path d="M1445.7 49.01L1286.48 105.32" stroke="hsl(228.5, 77.2%, 51.5%)" stroke-width="1.5"></path><path d="M1445.7 49.01L1586.55 205.15" stroke="hsl(228.5, 77.2%, 51.5%)" stroke-width="1.5"></path><path d="M1445.7 49.01L1267.32 -71.62" stroke="hsl(228.5, 77.2%, 51.5%)" stroke-width="1.5"></path><path d="M1443.86 198.34L1443.86 198.34" stroke="hsl(228.5, 77.2%, 51.5%)" stroke-width="1.5"></path><path d="M1443.86 198.34L1586.55 205.15" stroke="hsl(228.5, 77.2%, 51.5%)" stroke-width="1.5"></path><path d="M1443.86 198.34L1551.51 92.9" stroke="hsl(228.5, 77.2%, 51.5%)" stroke-width="1.5"></path><path d="M1581.35 698.01L1581.35 698.01" stroke="hsl(228.5, 77.2%, 51.5%)" stroke-width="1.5"></path><path d="M1581.35 698.01L1412.01 675.63" stroke="hsl(228.5, 77.2%, 51.5%)" stroke-width="1.5"></path><path d="M1581.35 698.01L1593.18 493.41" stroke="hsl(228.5, 77.2%, 51.5%)" stroke-width="1.5"></path><path d="M1581.35 698.01L1437.13 540.1" stroke="hsl(228.5, 77.2%, 51.5%)" stroke-width="1.5"></path><path d="M1581.35 698.01L1264.11 688.98" stroke="hsl(228.5, 77.2%, 51.5%)" stroke-width="1.5"></path><path d="M-74.26 538.33L-74.26 538.33" stroke="hsl(228.5, 77.2%, 51.5%)" stroke-width="1.5"></path><path d="M-74.26 538.33L-106.49 671.23" stroke="hsl(228.5, 77.2%, 51.5%)" stroke-width="1.5"></path><path d="M-74.26 538.33L91.07 546.93" stroke="hsl(228.5, 77.2%, 51.5%)" stroke-width="1.5"></path><path d="M-74.26 538.33L61.22 647.65" stroke="hsl(228.5, 77.2%, 51.5%)" stroke-width="1.5"></path><path d="M-106.49 671.23L-106.49 671.23" stroke="hsl(228.5, 77.2%, 51.5%)" stroke-width="1.5"></path><path d="M-106.49 671.23L61.22 647.65" stroke="hsl(228.5, 77.2%, 51.5%)" stroke-width="1.5"></path><path d="M-106.49 671.23L91.07 546.93" stroke="hsl(228.5, 77.2%, 51.5%)" stroke-width="1.5"></path><path d="M91.07 546.93L91.07 546.93" stroke="hsl(228.5, 77.2%, 51.5%)" stroke-width="1.5"></path><path d="M91.07 546.93L61.22 647.65" stroke="hsl(228.5, 77.2%, 51.5%)" stroke-width="1.5"></path><path d="M91.07 546.93L245.79 507.09" stroke="hsl(228.5, 77.2%, 51.5%)" stroke-width="1.5"></path><path d="M61.22 647.65L61.22 647.65" stroke="hsl(228.5, 77.2%, 51.5%)" stroke-width="1.5"></path><path d="M61.22 647.65L245.79 507.09" stroke="hsl(228.5, 77.2%, 51.5%)" stroke-width="1.5"></path><path d="M245.79 507.09L245.79 507.09" stroke="hsl(228.5, 77.2%, 51.5%)" stroke-width="1.5"></path><path d="M245.79 507.09L503.85 528.61" stroke="hsl(228.5, 77.2%, 51.5%)" stroke-width="1.5"></path><path d="M503.85 528.61L503.85 528.61" stroke="hsl(228.5, 77.2%, 51.5%)" stroke-width="1.5"></path><path d="M503.85 528.61L532.9 677.88" stroke="hsl(228.5, 77.2%, 51.5%)" stroke-width="1.5"></path><path d="M503.85 528.61L707 544.99" stroke="hsl(228.5, 77.2%, 51.5%)" stroke-width="1.5"></path><path d="M503.85 528.61L678.7 654.2" stroke="hsl(228.5, 77.2%, 51.5%)" stroke-width="1.5"></path><path d="M503.85 528.61L698.54 367.2" stroke="hsl(228.5, 77.2%, 51.5%)" stroke-width="1.5"></path><path d="M532.9 677.88L532.9 677.88" stroke="hsl(228.5, 77.2%, 51.5%)" stroke-width="1.5"></path><path d="M698.54 367.2L698.54 367.2" stroke="hsl(228.5, 77.2%, 51.5%)" stroke-width="1.5"></path><path d="M698.54 367.2L853.22 401.22" stroke="hsl(228.5, 77.2%, 51.5%)" stroke-width="1.5"></path><path d="M698.54 367.2L707 544.99" stroke="hsl(228.5, 77.2%, 51.5%)" stroke-width="1.5"></path><path d="M698.54 367.2L842.46 516.06" stroke="hsl(228.5, 77.2%, 51.5%)" stroke-width="1.5"></path><path d="M707 544.99L707 544.99" stroke="hsl(228.5, 77.2%, 51.5%)" stroke-width="1.5"></path><path d="M707 544.99L842.46 516.06" stroke="hsl(228.5, 77.2%, 51.5%)" stroke-width="1.5"></path><path d="M707 544.99L812.63 648.19" stroke="hsl(228.5, 77.2%, 51.5%)" stroke-width="1.5"></path><path d="M853.22 401.22L853.22 401.22" stroke="hsl(228.5, 77.2%, 51.5%)" stroke-width="1.5"></path><path d="M853.22 401.22L842.46 516.06" stroke="hsl(228.5, 77.2%, 51.5%)" stroke-width="1.5"></path><path d="M853.22 401.22L996.29 366.56" stroke="hsl(228.5, 77.2%, 51.5%)" stroke-width="1.5"></path><path d="M853.22 401.22L962.97 551.02" stroke="hsl(228.5, 77.2%, 51.5%)" stroke-width="1.5"></path><path d="M853.22 401.22L707 544.99" stroke="hsl(228.5, 77.2%, 51.5%)" stroke-width="1.5"></path><path d="M842.46 516.06L842.46 516.06" stroke="hsl(228.5, 77.2%, 51.5%)" stroke-width="1.5"></path><path d="M842.46 516.06L962.97 551.02" stroke="hsl(228.5, 77.2%, 51.5%)" stroke-width="1.5"></path><path d="M812.63 648.19L812.63 648.19" stroke="hsl(228.5, 77.2%, 51.5%)" stroke-width="1.5"></path><path d="M812.63 648.19L842.46 516.06" stroke="hsl(228.5, 77.2%, 51.5%)" stroke-width="1.5"></path><path d="M812.63 648.19L962.97 551.02" stroke="hsl(228.5, 77.2%, 51.5%)" stroke-width="1.5"></path><path d="M812.63 648.19L1000.37 639.78" stroke="hsl(228.5, 77.2%, 51.5%)" stroke-width="1.5"></path><path d="M996.29 366.56L996.29 366.56" stroke="hsl(228.5, 77.2%, 51.5%)" stroke-width="1.5"></path><path d="M996.29 366.56L962.97 551.02" stroke="hsl(228.5, 77.2%, 51.5%)" stroke-width="1.5"></path><path d="M996.29 366.56L1112.86 215.96" stroke="hsl(228.5, 77.2%, 51.5%)" stroke-width="1.5"></path><path d="M962.97 551.02L962.97 551.02" stroke="hsl(228.5, 77.2%, 51.5%)" stroke-width="1.5"></path><path d="M962.97 551.02L1000.37 639.78" stroke="hsl(228.5, 77.2%, 51.5%)" stroke-width="1.5"></path><path d="M962.97 551.02L1090.95 553.97" stroke="hsl(228.5, 77.2%, 51.5%)" stroke-width="1.5"></path><path d="M1000.37 639.78L1000.37 639.78" stroke="hsl(228.5, 77.2%, 51.5%)" stroke-width="1.5"></path><path d="M1000.37 639.78L1090.95 553.97" stroke="hsl(228.5, 77.2%, 51.5%)" stroke-width="1.5"></path><path d="M1000.37 639.78L842.46 516.06" stroke="hsl(228.5, 77.2%, 51.5%)" stroke-width="1.5"></path><path d="M1000.37 639.78L1264.11 688.98" stroke="hsl(228.5, 77.2%, 51.5%)" stroke-width="1.5"></path><path d="M1112.86 215.96L1112.86 215.96" stroke="hsl(228.5, 77.2%, 51.5%)" stroke-width="1.5"></path><path d="M1112.86 215.96L1272.3 207.31" stroke="hsl(228.5, 77.2%, 51.5%)" stroke-width="1.5"></path><path d="M1112.86 215.96L1286.48 105.32" stroke="hsl(228.5, 77.2%, 51.5%)" stroke-width="1.5"></path><path d="M1112.86 215.96L1394.51 347.59" stroke="hsl(228.5, 77.2%, 51.5%)" stroke-width="1.5"></path><path d="M1090.95 553.97L1090.95 553.97" stroke="hsl(228.5, 77.2%, 51.5%)" stroke-width="1.5"></path><path d="M1090.95 553.97L1269.32 516.66" stroke="hsl(228.5, 77.2%, 51.5%)" stroke-width="1.5"></path><path d="M1267.32 -71.62L1267.32 -71.62" stroke="hsl(228.5, 77.2%, 51.5%)" stroke-width="1.5"></path><path d="M1267.32 -71.62L1286.48 105.32" stroke="hsl(228.5, 77.2%, 51.5%)" stroke-width="1.5"></path><path d="M1267.32 -71.62L1151.31 80.86" stroke="hsl(228.5, 77.2%, 51.5%)" stroke-width="1.5"></path><path d="M1286.48 105.32L1286.48 105.32" stroke="hsl(228.5, 77.2%, 51.5%)" stroke-width="1.5"></path><path d="M1286.48 105.32L1272.3 207.31" stroke="hsl(228.5, 77.2%, 51.5%)" stroke-width="1.5"></path><path d="M1272.3 207.31L1272.3 207.31" stroke="hsl(228.5, 77.2%, 51.5%)" stroke-width="1.5"></path><path d="M1272.3 207.31L1443.86 198.34" stroke="hsl(228.5, 77.2%, 51.5%)" stroke-width="1.5"></path><path d="M1272.3 207.31L1394.51 347.59" stroke="hsl(228.5, 77.2%, 51.5%)" stroke-width="1.5"></path><path d="M1269.32 516.66L1269.32 516.66" stroke="hsl(228.5, 77.2%, 51.5%)" stroke-width="1.5"></path><path d="M1269.32 516.66L1437.13 540.1" stroke="hsl(228.5, 77.2%, 51.5%)" stroke-width="1.5"></path><path d="M1394.51 347.59L1394.51 347.59" stroke="hsl(228.5, 77.2%, 51.5%)" stroke-width="1.5"></path><path d="M1394.51 347.59L1540.14 340.5" stroke="hsl(228.5, 77.2%, 51.5%)" stroke-width="1.5"></path><path d="M1394.51 347.59L1443.86 198.34" stroke="hsl(228.5, 77.2%, 51.5%)" stroke-width="1.5"></path><path d="M1394.51 347.59L1437.13 540.1" stroke="hsl(228.5, 77.2%, 51.5%)" stroke-width="1.5"></path><path d="M1394.51 347.59L1269.32 516.66" stroke="hsl(228.5, 77.2%, 51.5%)" stroke-width="1.5"></path><path d="M1437.13 540.1L1437.13 540.1" stroke="hsl(228.5, 77.2%, 51.5%)" stroke-width="1.5"></path><path d="M1437.13 540.1L1412.01 675.63" stroke="hsl(228.5, 77.2%, 51.5%)" stroke-width="1.5"></path><path d="M1437.13 540.1L1593.18 493.41" stroke="hsl(228.5, 77.2%, 51.5%)" stroke-width="1.5"></path><path d="M1437.13 540.1L1540.14 340.5" stroke="hsl(228.5, 77.2%, 51.5%)" stroke-width="1.5"></path><path d="M1412.01 675.63L1412.01 675.63" stroke="hsl(228.5, 77.2%, 51.5%)" stroke-width="1.5"></path><path d="M1412.01 675.63L1269.32 516.66" stroke="hsl(228.5, 77.2%, 51.5%)" stroke-width="1.5"></path><path d="M1412.01 675.63L1593.18 493.41" stroke="hsl(228.5, 77.2%, 51.5%)" stroke-width="1.5"></path><path d="M1412.01 675.63L1117.62 657.3" stroke="hsl(228.5, 77.2%, 51.5%)" stroke-width="1.5"></path><path d="M1551.51 92.9L1551.51 92.9" stroke="hsl(228.5, 77.2%, 51.5%)" stroke-width="1.5"></path><path d="M1551.51 92.9L1586.55 205.15" stroke="hsl(228.5, 77.2%, 51.5%)" stroke-width="1.5"></path><path d="M1586.55 205.15L1586.55 205.15" stroke="hsl(228.5, 77.2%, 51.5%)" stroke-width="1.5"></path><path d="M1586.55 205.15L1540.14 340.5" stroke="hsl(228.5, 77.2%, 51.5%)" stroke-width="1.5"></path><path d="M1540.14 340.5L1540.14 340.5" stroke="hsl(228.5, 77.2%, 51.5%)" stroke-width="1.5"></path><path d="M1593.18 493.41L1593.18 493.41" stroke="hsl(228.5, 77.2%, 51.5%)" stroke-width="1.5"></path><path d="M1593.18 493.41L1540.14 340.5" stroke="hsl(228.5, 77.2%, 51.5%)" stroke-width="1.5"></path><path d="M1593.18 493.41L1394.51 347.59" stroke="hsl(228.5, 77.2%, 51.5%)" stroke-width="1.5"></path><circle r="25" cx="194.65" cy="703.65" fill="url(&quot;#SvgjsRadialGradient1001&quot;)"></circle><circle r="25" cx="386.6" cy="556.7" fill="url(&quot;#SvgjsRadialGradient1001&quot;)"></circle><circle r="25" cx="678.7" cy="654.2" fill="url(&quot;#SvgjsRadialGradient1001&quot;)"></circle><circle r="25" cx="1151.31" cy="80.86" fill="url(&quot;#SvgjsRadialGradient1001&quot;)"></circle><circle r="25" cx="1137.49" cy="356.51" fill="url(&quot;#SvgjsRadialGradient1001&quot;)"></circle><circle r="25" cx="1117.62" cy="657.3" fill="url(&quot;#SvgjsRadialGradient1001&quot;)"></circle><circle r="25" cx="1264.11" cy="688.98" fill="url(&quot;#SvgjsRadialGradient1001&quot;)"></circle><circle r="25" cx="1405.86" cy="-83.76" fill="url(&quot;#SvgjsRadialGradient1001&quot;)"></circle><circle r="25" cx="1445.7" cy="49.01" fill="url(&quot;#SvgjsRadialGradient1001&quot;)"></circle><circle r="25" cx="1443.86" cy="198.34" fill="url(&quot;#SvgjsRadialGradient1001&quot;)"></circle><circle r="25" cx="1581.35" cy="698.01" fill="url(&quot;#SvgjsRadialGradient1001&quot;)"></circle><circle r="5" cx="-74.26" cy="538.33" fill="#8b9ad9"></circle><circle r="5" cx="-106.49" cy="671.23" fill="#8b9ad9"></circle><circle r="5" cx="91.07" cy="546.93" fill="#8b9ad9"></circle><circle r="5" cx="61.22" cy="647.65" fill="#8b9ad9"></circle><circle r="5" cx="245.79" cy="507.09" fill="#8b9ad9"></circle><circle r="5" cx="503.85" cy="528.61" fill="#8b9ad9"></circle><circle r="5" cx="532.9" cy="677.88" fill="#8b9ad9"></circle><circle r="5" cx="698.54" cy="367.2" fill="#8b9ad9"></circle><circle r="5" cx="707" cy="544.99" fill="#8b9ad9"></circle><circle r="5" cx="853.22" cy="401.22" fill="#8b9ad9"></circle><circle r="5" cx="842.46" cy="516.06" fill="#8b9ad9"></circle><circle r="5" cx="812.63" cy="648.19" fill="#8b9ad9"></circle><circle r="5" cx="996.29" cy="366.56" fill="#8b9ad9"></circle><circle r="5" cx="962.97" cy="551.02" fill="#8b9ad9"></circle><circle r="5" cx="1000.37" cy="639.78" fill="#8b9ad9"></circle><circle r="5" cx="1112.86" cy="215.96" fill="#8b9ad9"></circle><circle r="5" cx="1090.95" cy="553.97" fill="#8b9ad9"></circle><circle r="5" cx="1267.32" cy="-71.62" fill="#8b9ad9"></circle><circle r="5" cx="1286.48" cy="105.32" fill="#8b9ad9"></circle><circle r="5" cx="1272.3" cy="207.31" fill="#8b9ad9"></circle><circle r="5" cx="1269.32" cy="516.66" fill="#8b9ad9"></circle><circle r="5" cx="1394.51" cy="347.59" fill="#8b9ad9"></circle><circle r="5" cx="1437.13" cy="540.1" fill="#8b9ad9"></circle><circle r="5" cx="1412.01" cy="675.63" fill="#8b9ad9"></circle><circle r="5" cx="1551.51" cy="92.9" fill="#8b9ad9"></circle><circle r="5" cx="1586.55" cy="205.15" fill="#8b9ad9"></circle><circle r="5" cx="1540.14" cy="340.5" fill="#8b9ad9"></circle><circle r="5" cx="1593.18" cy="493.41" fill="#8b9ad9"></circle></g><defs><mask id="SvgjsMask1000"><rect width="1440" height="560" fill="#ffffff"></rect></mask><radialGradient id="SvgjsRadialGradient1001"><stop stop-color="#ffffff" offset="0.1"></stop><stop stop-color="#1735b3" offset="0.2"></stop><stop stop-color="rgba(23, 53, 179, 0)" offset="1"></stop></radialGradient></defs></svg>