<svg xmlns="http://www.w3.org/2000/svg" version="1.1" xmlns:xlink="http://www.w3.org/1999/xlink" xmlns:svgjs="http://svgjs.dev/svgjs" width="1440" height="560" preserveAspectRatio="none" viewBox="0 0 1440 560"><g mask="url(&quot;#SvgjsMask1000&quot;)" fill="none"><rect width="1440" height="560" x="0" y="0" fill="#0e2a47"></rect><g mask="url(&quot;#SvgjsMask1001&quot;)"><path d="M137.5 287.5L162.5 312.5L187.5 312.5L212.5 312.5M62.5 287.5L87.5 312.5L112.5 312.5M387.5 287.5L412.5 312.5M237.5 287.5L262.5 312.5M287.5 287.5L312.5 262.5L337.5 262.5L362.5 262.5M-12.5 287.5L12.5 287.5L37.5 287.5L62.5 287.5L87.5 287.5L112.5 287.5L137.5 287.5L162.5 287.5L187.5 287.5L212.5 287.5L237.5 287.5L262.5 287.5L287.5 287.5L312.5 287.5L337.5 287.5L362.5 287.5L387.5 287.5L412.5 287.5L437.5 287.5L462.5 312.5" stroke="#3a7cc3" stroke-width="4.17"></path><path d="M456.25 312.5 a6.25 6.25 0 1 0 12.5 0 a6.25 6.25 0 1 0 -12.5 0zM206.25 312.5 a6.25 6.25 0 1 0 12.5 0 a6.25 6.25 0 1 0 -12.5 0zM106.25 312.5 a6.25 6.25 0 1 0 12.5 0 a6.25 6.25 0 1 0 -12.5 0zM406.25 312.5 a6.25 6.25 0 1 0 12.5 0 a6.25 6.25 0 1 0 -12.5 0zM256.25 312.5 a6.25 6.25 0 1 0 12.5 0 a6.25 6.25 0 1 0 -12.5 0zM356.25 262.5 a6.25 6.25 0 1 0 12.5 0 a6.25 6.25 0 1 0 -12.5 0z" fill="#3a7cc3"></path><path d="M387.5 237.5L412.5 237.5L437.5 237.5L462.5 237.5M212.5 262.5L237.5 262.5L262.5 262.5M462.5 262.5L487.5 287.5L512.5 287.5L537.5 287.5L562.5 287.5M337.5 237.5L362.5 212.5L387.5 212.5L412.5 212.5M-12.5 262.5L12.5 262.5L37.5 262.5L62.5 262.5L87.5 262.5L112.5 262.5L137.5 262.5L162.5 262.5L187.5 262.5L212.5 262.5L237.5 237.5L262.5 237.5L287.5 237.5L312.5 237.5L337.5 237.5L362.5 237.5L387.5 237.5L412.5 262.5L437.5 262.5L462.5 262.5L487.5 262.5" stroke="#3a7cc3" stroke-width="4.17"></path><path d="M481.25 262.5 a6.25 6.25 0 1 0 12.5 0 a6.25 6.25 0 1 0 -12.5 0zM456.25 237.5 a6.25 6.25 0 1 0 12.5 0 a6.25 6.25 0 1 0 -12.5 0zM256.25 262.5 a6.25 6.25 0 1 0 12.5 0 a6.25 6.25 0 1 0 -12.5 0zM556.25 287.5 a6.25 6.25 0 1 0 12.5 0 a6.25 6.25 0 1 0 -12.5 0zM406.25 212.5 a6.25 6.25 0 1 0 12.5 0 a6.25 6.25 0 1 0 -12.5 0z" fill="#3a7cc3"></path><path d="M12.5 337.5L37.5 312.5M187.5 387.5L212.5 362.5L237.5 362.5L262.5 362.5L287.5 362.5M162.5 362.5L187.5 362.5L212.5 337.5M-12.5 312.5L12.5 337.5L37.5 337.5L62.5 362.5L87.5 362.5L112.5 362.5L137.5 362.5L162.5 362.5L187.5 387.5L212.5 387.5" stroke="#dd1133" stroke-width="4.17"></path><path d="M206.25 387.5 a6.25 6.25 0 1 0 12.5 0 a6.25 6.25 0 1 0 -12.5 0zM31.25 312.5 a6.25 6.25 0 1 0 12.5 0 a6.25 6.25 0 1 0 -12.5 0zM281.25 362.5 a6.25 6.25 0 1 0 12.5 0 a6.25 6.25 0 1 0 -12.5 0zM206.25 337.5 a6.25 6.25 0 1 0 12.5 0 a6.25 6.25 0 1 0 -12.5 0z" fill="#dd1133"></path><path d="M162.5 237.5L187.5 212.5L212.5 212.5M262.5 212.5L287.5 187.5M-12.5 237.5L12.5 237.5L37.5 237.5L62.5 237.5L87.5 237.5L112.5 237.5L137.5 237.5L162.5 237.5L187.5 237.5L212.5 237.5L237.5 212.5L262.5 212.5L287.5 212.5L312.5 212.5" stroke="#3a7cc3" stroke-width="4.17"></path><path d="M306.25 212.5 a6.25 6.25 0 1 0 12.5 0 a6.25 6.25 0 1 0 -12.5 0zM206.25 212.5 a6.25 6.25 0 1 0 12.5 0 a6.25 6.25 0 1 0 -12.5 0zM281.25 187.5 a6.25 6.25 0 1 0 12.5 0 a6.25 6.25 0 1 0 -12.5 0z" fill="#3a7cc3"></path><path d="M137.5 412.5L162.5 387.5M287.5 437.5L312.5 412.5L337.5 412.5M312.5 437.5L337.5 462.5M-12.5 337.5L12.5 362.5L37.5 387.5L62.5 387.5L87.5 387.5L112.5 412.5L137.5 412.5L162.5 412.5L187.5 437.5L212.5 437.5L237.5 437.5L262.5 437.5L287.5 437.5L312.5 437.5L337.5 437.5" stroke="#3a7cc3" stroke-width="4.17"></path><path d="M331.25 437.5 a6.25 6.25 0 1 0 12.5 0 a6.25 6.25 0 1 0 -12.5 0zM156.25 387.5 a6.25 6.25 0 1 0 12.5 0 a6.25 6.25 0 1 0 -12.5 0zM331.25 412.5 a6.25 6.25 0 1 0 12.5 0 a6.25 6.25 0 1 0 -12.5 0zM331.25 462.5 a6.25 6.25 0 1 0 12.5 0 a6.25 6.25 0 1 0 -12.5 0z" fill="#3a7cc3"></path><path d="M137.5 212.5L162.5 212.5M37.5 212.5L62.5 187.5L87.5 187.5M112.5 212.5L137.5 187.5M-12.5 212.5L12.5 212.5L37.5 212.5L62.5 212.5L87.5 212.5L112.5 212.5L137.5 212.5L162.5 187.5L187.5 187.5L212.5 187.5L237.5 187.5" stroke="#3a7cc3" stroke-width="4.17"></path><path d="M231.25 187.5 a6.25 6.25 0 1 0 12.5 0 a6.25 6.25 0 1 0 -12.5 0zM156.25 212.5 a6.25 6.25 0 1 0 12.5 0 a6.25 6.25 0 1 0 -12.5 0zM81.25 187.5 a6.25 6.25 0 1 0 12.5 0 a6.25 6.25 0 1 0 -12.5 0zM131.25 187.5 a6.25 6.25 0 1 0 12.5 0 a6.25 6.25 0 1 0 -12.5 0z" fill="#3a7cc3"></path><path d="M-12.5 362.5L12.5 387.5L37.5 412.5L62.5 412.5" stroke="#3a7cc3" stroke-width="4.17"></path><path d="M56.25 412.5 a6.25 6.25 0 1 0 12.5 0 a6.25 6.25 0 1 0 -12.5 0z" fill="#3a7cc3"></path><path d="M287.5 162.5L312.5 137.5L337.5 137.5M237.5 162.5L262.5 137.5M12.5 187.5L37.5 187.5M-12.5 187.5L12.5 187.5L37.5 162.5L62.5 162.5L87.5 162.5L112.5 162.5L137.5 162.5L162.5 162.5L187.5 162.5L212.5 162.5L237.5 162.5L262.5 162.5L287.5 162.5L312.5 162.5L337.5 162.5" stroke="#dd1133" stroke-width="4.17"></path><path d="M331.25 162.5 a6.25 6.25 0 1 0 12.5 0 a6.25 6.25 0 1 0 -12.5 0zM331.25 137.5 a6.25 6.25 0 1 0 12.5 0 a6.25 6.25 0 1 0 -12.5 0zM256.25 137.5 a6.25 6.25 0 1 0 12.5 0 a6.25 6.25 0 1 0 -12.5 0zM31.25 187.5 a6.25 6.25 0 1 0 12.5 0 a6.25 6.25 0 1 0 -12.5 0z" fill="#dd1133"></path><path d="M37.5 437.5L62.5 462.5L87.5 462.5L112.5 462.5M187.5 462.5L212.5 487.5L237.5 487.5L262.5 487.5L287.5 487.5M137.5 437.5L162.5 462.5M-12.5 387.5L12.5 412.5L37.5 437.5L62.5 437.5L87.5 437.5L112.5 437.5L137.5 437.5L162.5 437.5L187.5 462.5L212.5 462.5L237.5 462.5" stroke="#3a7cc3" stroke-width="4.17"></path><path d="M231.25 462.5 a6.25 6.25 0 1 0 12.5 0 a6.25 6.25 0 1 0 -12.5 0zM106.25 462.5 a6.25 6.25 0 1 0 12.5 0 a6.25 6.25 0 1 0 -12.5 0zM281.25 487.5 a6.25 6.25 0 1 0 12.5 0 a6.25 6.25 0 1 0 -12.5 0zM156.25 462.5 a6.25 6.25 0 1 0 12.5 0 a6.25 6.25 0 1 0 -12.5 0z" fill="#3a7cc3"></path><path d="M212.5 137.5L237.5 137.5M37.5 137.5L62.5 112.5L87.5 112.5M237.5 112.5L262.5 87.5L287.5 87.5M137.5 137.5L162.5 112.5M462.5 137.5L487.5 162.5L512.5 162.5L537.5 187.5L562.5 187.5M112.5 137.5L137.5 112.5L162.5 87.5L187.5 62.5M362.5 112.5L387.5 87.5L412.5 87.5L437.5 87.5L462.5 87.5M-12.5 162.5L12.5 162.5L37.5 137.5L62.5 137.5L87.5 137.5L112.5 137.5L137.5 137.5L162.5 137.5L187.5 137.5L212.5 137.5L237.5 112.5L262.5 112.5L287.5 112.5L312.5 112.5L337.5 112.5L362.5 112.5L387.5 112.5L412.5 112.5L437.5 137.5L462.5 137.5L487.5 137.5L512.5 137.5L537.5 137.5L562.5 137.5L587.5 112.5L612.5 112.5L637.5 112.5L662.5 112.5" stroke="#dd1133" stroke-width="4.17"></path><path d="M656.25 112.5 a6.25 6.25 0 1 0 12.5 0 a6.25 6.25 0 1 0 -12.5 0zM231.25 137.5 a6.25 6.25 0 1 0 12.5 0 a6.25 6.25 0 1 0 -12.5 0zM81.25 112.5 a6.25 6.25 0 1 0 12.5 0 a6.25 6.25 0 1 0 -12.5 0zM281.25 87.5 a6.25 6.25 0 1 0 12.5 0 a6.25 6.25 0 1 0 -12.5 0zM156.25 112.5 a6.25 6.25 0 1 0 12.5 0 a6.25 6.25 0 1 0 -12.5 0zM556.25 187.5 a6.25 6.25 0 1 0 12.5 0 a6.25 6.25 0 1 0 -12.5 0zM181.25 62.5 a6.25 6.25 0 1 0 12.5 0 a6.25 6.25 0 1 0 -12.5 0zM456.25 87.5 a6.25 6.25 0 1 0 12.5 0 a6.25 6.25 0 1 0 -12.5 0z" fill="#dd1133"></path></g></g><defs><mask id="SvgjsMask1000"><rect width="1440" height="560" fill="#ffffff"></rect></mask><mask id="SvgjsMask1001"><rect width="1440" height="560" fill="white"></rect><path d="M459.37 312.5 a3.13 3.13 0 1 0 6.26 0 a3.13 3.13 0 1 0 -6.26 0zM209.37 312.5 a3.13 3.13 0 1 0 6.26 0 a3.13 3.13 0 1 0 -6.26 0zM109.37 312.5 a3.13 3.13 0 1 0 6.26 0 a3.13 3.13 0 1 0 -6.26 0zM409.37 312.5 a3.13 3.13 0 1 0 6.26 0 a3.13 3.13 0 1 0 -6.26 0zM259.37 312.5 a3.13 3.13 0 1 0 6.26 0 a3.13 3.13 0 1 0 -6.26 0zM359.37 262.5 a3.13 3.13 0 1 0 6.26 0 a3.13 3.13 0 1 0 -6.26 0z" fill="black"></path><path d="M484.37 262.5 a3.13 3.13 0 1 0 6.26 0 a3.13 3.13 0 1 0 -6.26 0zM459.37 237.5 a3.13 3.13 0 1 0 6.26 0 a3.13 3.13 0 1 0 -6.26 0zM259.37 262.5 a3.13 3.13 0 1 0 6.26 0 a3.13 3.13 0 1 0 -6.26 0zM559.37 287.5 a3.13 3.13 0 1 0 6.26 0 a3.13 3.13 0 1 0 -6.26 0zM409.37 212.5 a3.13 3.13 0 1 0 6.26 0 a3.13 3.13 0 1 0 -6.26 0z" fill="black"></path><path d="M209.37 387.5 a3.13 3.13 0 1 0 6.26 0 a3.13 3.13 0 1 0 -6.26 0zM34.37 312.5 a3.13 3.13 0 1 0 6.26 0 a3.13 3.13 0 1 0 -6.26 0zM284.37 362.5 a3.13 3.13 0 1 0 6.26 0 a3.13 3.13 0 1 0 -6.26 0zM209.37 337.5 a3.13 3.13 0 1 0 6.26 0 a3.13 3.13 0 1 0 -6.26 0z" fill="black"></path><path d="M309.37 212.5 a3.13 3.13 0 1 0 6.26 0 a3.13 3.13 0 1 0 -6.26 0zM209.37 212.5 a3.13 3.13 0 1 0 6.26 0 a3.13 3.13 0 1 0 -6.26 0zM284.37 187.5 a3.13 3.13 0 1 0 6.26 0 a3.13 3.13 0 1 0 -6.26 0z" fill="black"></path><path d="M334.37 437.5 a3.13 3.13 0 1 0 6.26 0 a3.13 3.13 0 1 0 -6.26 0zM159.37 387.5 a3.13 3.13 0 1 0 6.26 0 a3.13 3.13 0 1 0 -6.26 0zM334.37 412.5 a3.13 3.13 0 1 0 6.26 0 a3.13 3.13 0 1 0 -6.26 0zM334.37 462.5 a3.13 3.13 0 1 0 6.26 0 a3.13 3.13 0 1 0 -6.26 0z" fill="black"></path><path d="M234.37 187.5 a3.13 3.13 0 1 0 6.26 0 a3.13 3.13 0 1 0 -6.26 0zM159.37 212.5 a3.13 3.13 0 1 0 6.26 0 a3.13 3.13 0 1 0 -6.26 0zM84.37 187.5 a3.13 3.13 0 1 0 6.26 0 a3.13 3.13 0 1 0 -6.26 0zM134.37 187.5 a3.13 3.13 0 1 0 6.26 0 a3.13 3.13 0 1 0 -6.26 0z" fill="black"></path><path d="M59.37 412.5 a3.13 3.13 0 1 0 6.26 0 a3.13 3.13 0 1 0 -6.26 0z" fill="black"></path><path d="M334.37 162.5 a3.13 3.13 0 1 0 6.26 0 a3.13 3.13 0 1 0 -6.26 0zM334.37 137.5 a3.13 3.13 0 1 0 6.26 0 a3.13 3.13 0 1 0 -6.26 0zM259.37 137.5 a3.13 3.13 0 1 0 6.26 0 a3.13 3.13 0 1 0 -6.26 0zM34.37 187.5 a3.13 3.13 0 1 0 6.26 0 a3.13 3.13 0 1 0 -6.26 0z" fill="black"></path><path d="M234.37 462.5 a3.13 3.13 0 1 0 6.26 0 a3.13 3.13 0 1 0 -6.26 0zM109.37 462.5 a3.13 3.13 0 1 0 6.26 0 a3.13 3.13 0 1 0 -6.26 0zM284.37 487.5 a3.13 3.13 0 1 0 6.26 0 a3.13 3.13 0 1 0 -6.26 0zM159.37 462.5 a3.13 3.13 0 1 0 6.26 0 a3.13 3.13 0 1 0 -6.26 0z" fill="black"></path><path d="M659.37 112.5 a3.13 3.13 0 1 0 6.26 0 a3.13 3.13 0 1 0 -6.26 0zM234.37 137.5 a3.13 3.13 0 1 0 6.26 0 a3.13 3.13 0 1 0 -6.26 0zM84.37 112.5 a3.13 3.13 0 1 0 6.26 0 a3.13 3.13 0 1 0 -6.26 0zM284.37 87.5 a3.13 3.13 0 1 0 6.26 0 a3.13 3.13 0 1 0 -6.26 0zM159.37 112.5 a3.13 3.13 0 1 0 6.26 0 a3.13 3.13 0 1 0 -6.26 0zM559.37 187.5 a3.13 3.13 0 1 0 6.26 0 a3.13 3.13 0 1 0 -6.26 0zM184.37 62.5 a3.13 3.13 0 1 0 6.26 0 a3.13 3.13 0 1 0 -6.26 0zM459.37 87.5 a3.13 3.13 0 1 0 6.26 0 a3.13 3.13 0 1 0 -6.26 0z" fill="black"></path></mask></defs></svg>