<svg xmlns="http://www.w3.org/2000/svg" version="1.1" xmlns:xlink="http://www.w3.org/1999/xlink" xmlns:svgjs="http://svgjs.dev/svgjs" width="1440" height="560" preserveAspectRatio="none" viewBox="0 0 1440 560"><g mask="url(&quot;#SvgjsMask1000&quot;)" fill="none"><rect width="1440" height="560" x="0" y="0" fill="#0e2a47"></rect><path d="M313.83 234.64L356.36 234.64L356.36 277.17L313.83 277.17z" stroke="#e73635"></path><path d="M817.07 311.37 a7.36 7.36 0 1 0 14.72 0 a7.36 7.36 0 1 0 -14.72 0z" fill="#d3b714"></path><path d="M213.6 443.89a11.4 11.4 0 1 0-20.84 9.24z" stroke="#e73635"></path><path d="M1172.55 548.99 a6.2 6.2 0 1 0 12.4 0 a6.2 6.2 0 1 0 -12.4 0z" fill="#d3b714"></path><path d="M180.43 429.47L202.46 429.47L202.46 451.5L180.43 451.5z" fill="#e73635"></path><path d="M1297.88 372.84 a4.03 4.03 0 1 0 8.06 0 a4.03 4.03 0 1 0 -8.06 0z" stroke="#e73635"></path><path d="M368.4 344.41 a32.18 32.18 0 1 0 64.36 0 a32.18 32.18 0 1 0 -64.36 0z" fill="#e73635"></path><path d="M412.83 81.76 a19.52 19.52 0 1 0 39.04 0 a19.52 19.52 0 1 0 -39.04 0z" stroke="#e73635"></path><path d="M79.03 359.34a4.78 4.78 0 1 0 9.32 2.11z" stroke="#d3b714"></path><path d="M673.69 303.08 a32.54 32.54 0 1 0 65.08 0 a32.54 32.54 0 1 0 -65.08 0z" fill="#d3b714"></path><path d="M147.65 494.33L165.71 494.33L165.71 513.8L147.65 513.8z" fill="#e73635"></path><path d="M1066.62 494.01L1088.32 494.01L1088.32 545.83L1066.62 545.83z" stroke="#d3b714"></path><path d="M444.41 322.61L473.38 322.61L473.38 351.58L444.41 351.58z" fill="#d3b714"></path><path d="M992.63 444.6 a6.85 6.85 0 1 0 13.7 0 a6.85 6.85 0 1 0 -13.7 0z" stroke="#e73635"></path><path d="M921.22 174.11L952.73 174.11L952.73 213.82L921.22 213.82z" fill="#d3b714"></path><path d="M359.94 206.79 a38.38 38.38 0 1 0 76.76 0 a38.38 38.38 0 1 0 -76.76 0z" stroke="#e73635"></path><path d="M39.76 78.82 a19.24 19.24 0 1 0 38.48 0 a19.24 19.24 0 1 0 -38.48 0z" stroke="#d3b714"></path><path d="M1246.16 317.34 a2.9 2.9 0 1 0 5.8 0 a2.9 2.9 0 1 0 -5.8 0z" fill="#e73635"></path><path d="M1162.01 381.73L1195.83 381.73L1195.83 436.58L1162.01 436.58z" fill="#e73635"></path><path d="M1042.34 64.42L1069.14 64.42L1069.14 91.22L1042.34 91.22z" fill="#d3b714"></path><path d="M232.57 59.28L271.22 59.28L271.22 92.9L232.57 92.9z" fill="#d3b714"></path><path d="M513.41 535.04 a45.83 45.83 0 1 0 91.66 0 a45.83 45.83 0 1 0 -91.66 0z" stroke="#d3b714"></path><path d="M319.66 169.03a31.75 31.75 0 1 0 19.11-60.56z" fill="#d3b714"></path><path d="M699.19 346.66L719.38 346.66L719.38 366.85L699.19 366.85z" stroke="#e73635"></path><path d="M125.33 419.1 a28.79 28.79 0 1 0 57.58 0 a28.79 28.79 0 1 0 -57.58 0z" stroke="#d3b714"></path><path d="M984.47 109.24a31.44 31.44 0 1 0 52.8 34.14z" stroke="#e73635"></path><path d="M-34.29 556.93a39.82 39.82 0 1 0 76.1-23.46z" stroke="#d3b714"></path><path d="M1079.88 511.66 a37.48 37.48 0 1 0 74.96 0 a37.48 37.48 0 1 0 -74.96 0z" stroke="#d3b714"></path><path d="M673.31 361.36a15.94 15.94 0 1 0 23.12-21.94z" fill="#e73635"></path><path d="M1120.42 179.51 a49.87 49.87 0 1 0 99.74 0 a49.87 49.87 0 1 0 -99.74 0z" fill="#e73635"></path><path d="M1316.49 452.28L1344.72 452.28L1344.72 480.51L1316.49 480.51z" stroke="#e73635"></path><path d="M666.88 241.49L669.89 241.49L669.89 244.5L666.88 244.5z" stroke="#e73635"></path><path d="M1213.99 247.99 a52.31 52.31 0 1 0 104.62 0 a52.31 52.31 0 1 0 -104.62 0z" stroke="#d3b714"></path></g><defs><mask id="SvgjsMask1000"><rect width="1440" height="560" fill="#ffffff"></rect></mask></defs></svg>