<svg xmlns="http://www.w3.org/2000/svg" version="1.1" xmlns:xlink="http://www.w3.org/1999/xlink" xmlns:svgjs="http://svgjs.dev/svgjs" width="1440" height="560" preserveAspectRatio="none" viewBox="0 0 1440 560"><g mask="url(&quot;#SvgjsMask1124&quot;)" fill="none"><rect width="1440" height="560" x="0" y="0" fill="#0e2a47"></rect><g transform="translate(14.4, 0)" stroke-linecap="round"><path d="M270 235.3 L270 324.7" stroke-width="15" stroke="#dd1133"></path><path d="M290 177.12 L290 382.88" stroke-width="15" stroke="#3a7cc3"></path><path d="M310 260 L310 300" stroke-width="15" stroke="#dd1133"></path><path d="M330 195.99 L330 364.01" stroke-width="15" stroke="#dd1133"></path><path d="M350 217.43 L350 342.57" stroke-width="15" stroke="#dd1133"></path><path d="M370 215.11 L370 344.89" stroke-width="15" stroke="#3a7cc3"></path><path d="M390 163.04 L390 396.96" stroke-width="15" stroke="#dd1133"></path><path d="M410 116.93 L410 443.07" stroke-width="15" stroke="#dd1133"></path><path d="M430 231.81 L430 328.19" stroke-width="15" stroke="#dd1133"></path><path d="M450 212.24 L450 347.76" stroke-width="15" stroke="#3a7cc3"></path><path d="M470 201.79 L470 358.21" stroke-width="15" stroke="#dd1133"></path><path d="M490 166.31 L490 393.69" stroke-width="15" stroke="#dd1133"></path><path d="M510 161.92 L510 398.08" stroke-width="15" stroke="#dd1133"></path><path d="M530 178.83 L530 381.17" stroke-width="15" stroke="#3a7cc3"></path><path d="M550 230.46 L550 329.54" stroke-width="15" stroke="#dd1133"></path><path d="M570 176.81 L570 383.19" stroke-width="15" stroke="#3a7cc3"></path><path d="M590 148.86 L590 411.14" stroke-width="15" stroke="#3a7cc3"></path><path d="M610 122.07 L610 437.93" stroke-width="15" stroke="#3a7cc3"></path><path d="M630 191.61 L630 368.39" stroke-width="15" stroke="#dd1133"></path><path d="M650 166.67 L650 393.33" stroke-width="15" stroke="#3a7cc3"></path><path d="M670 235.72 L670 324.28" stroke-width="15" stroke="#dd1133"></path><path d="M690 162.99 L690 397.01" stroke-width="15" stroke="#3a7cc3"></path><path d="M710 173.25 L710 386.75" stroke-width="15" stroke="#dd1133"></path><path d="M730 151.09 L730 408.91" stroke-width="15" stroke="#3a7cc3"></path><path d="M750 186.03 L750 373.97" stroke-width="15" stroke="#dd1133"></path><path d="M770 182.41 L770 377.6" stroke-width="15" stroke="#dd1133"></path><path d="M790 187.91 L790 372.09" stroke-width="15" stroke="#dd1133"></path><path d="M810 221.85 L810 338.14" stroke-width="15" stroke="#3a7cc3"></path><path d="M830 185.3 L830 374.7" stroke-width="15" stroke="#3a7cc3"></path><path d="M850 197.47 L850 362.53" stroke-width="15" stroke="#dd1133"></path><path d="M870 185.53 L870 374.47" stroke-width="15" stroke="#dd1133"></path><path d="M890 210.32 L890 349.68" stroke-width="15" stroke="#3a7cc3"></path><path d="M910 202.58 L910 357.42" stroke-width="15" stroke="#dd1133"></path><path d="M930 129.37 L930 430.63" stroke-width="15" stroke="#3a7cc3"></path><path d="M950 251.19 L950 308.81" stroke-width="15" stroke="#dd1133"></path><path d="M970 193.27 L970 366.73" stroke-width="15" stroke="#3a7cc3"></path><path d="M990 227.91 L990 332.1" stroke-width="15" stroke="#3a7cc3"></path><path d="M1010 260.54 L1010 299.46" stroke-width="15" stroke="#dd1133"></path><path d="M1030 230.63 L1030 329.37" stroke-width="15" stroke="#3a7cc3"></path><path d="M1050 218.68 L1050 341.32" stroke-width="15" stroke="#3a7cc3"></path><path d="M1070 141.7 L1070 418.3" stroke-width="15" stroke="#3a7cc3"></path><path d="M1090 176.9 L1090 383.1" stroke-width="15" stroke="#dd1133"></path><path d="M1110 162.57 L1110 397.43" stroke-width="15" stroke="#3a7cc3"></path><path d="M1130 189.94 L1130 370.06" stroke-width="15" stroke="#dd1133"></path><path d="M1150 146.63 L1150 413.37" stroke-width="15" stroke="#3a7cc3"></path><path d="M1170 181.14 L1170 378.86" stroke-width="15" stroke="#3a7cc3"></path></g></g><defs><mask id="SvgjsMask1124"><rect width="1440" height="560" fill="#ffffff"></rect></mask></defs></svg>