<svg xmlns="http://www.w3.org/2000/svg" version="1.1" xmlns:xlink="http://www.w3.org/1999/xlink" xmlns:svgjs="http://svgjs.dev/svgjs" width="1440" height="560" preserveAspectRatio="none" viewBox="0 0 1440 560"><g mask="url(&quot;#SvgjsMask1041&quot;)" fill="none"><rect width="1440" height="560" x="0" y="0" fill="rgba(35, 10, 97, 1)"></rect><path d="M1172.939,654.385C1205.967,654.417,1233.096,631.379,1249.655,602.802C1266.266,574.135,1272.896,539.057,1256.42,510.312C1239.869,481.436,1206.2,470.174,1172.939,468.961C1136.898,467.646,1096.104,472.505,1078.199,503.811C1060.37,534.985,1077.351,572.26,1096.476,602.656C1114.041,630.572,1139.957,654.354,1172.939,654.385" fill="rgba(28, 83, 142, 0.4)" class="triangle-float3"></path><path d="M392.043,505.09C438.666,505.529,481.326,480.264,505.322,440.288C530.072,399.056,535.504,347.588,511.65,305.831C487.624,263.772,440.47,243.018,392.043,241.989C341.521,240.915,287.944,256.44,263.293,300.552C239.075,343.888,255.954,396.176,282.4,438.189C306.845,477.024,346.157,504.658,392.043,505.09" fill="rgba(28, 83, 142, 0.4)" class="triangle-float2"></path><path d="M664.8797781219796 414.04190668449735L627.0838344648231 495.0955694244587 767.5623004033433 511.2626535402127z" fill="rgba(28, 83, 142, 0.4)" class="triangle-float1"></path><path d="M1273.932,395.466C1314.266,391.88,1348.048,368.318,1368.907,333.611C1390.531,297.631,1402.462,253.042,1381.328,216.772C1360.302,180.688,1315.669,169.153,1273.932,170.615C1235.014,171.979,1201.33,192.086,1178.826,223.867C1151.119,262.997,1121.139,311.638,1144.381,353.574C1167.962,396.12,1225.479,399.774,1273.932,395.466" fill="rgba(28, 83, 142, 0.4)" class="triangle-float3"></path><path d="M795.172,153.023C835.732,151.869,871.599,127.227,890.536,91.341C908.281,57.714,903.337,17.731,883.768,-14.868C864.817,-46.437,831.969,-66.232,795.172,-67.52C755.853,-68.897,716.335,-54.616,695.138,-21.472C672.302,14.234,668.845,60.277,689.925,97.047C711.106,133.994,752.601,154.234,795.172,153.023" fill="rgba(28, 83, 142, 0.4)" class="triangle-float3"></path><path d="M88.824,188.409C115.658,188.638,135.708,167.056,149.375,143.962C163.373,120.308,172.435,92.406,160.203,67.792C146.73,40.68,119.07,20.802,88.824,22.119C60.24,23.364,39.977,47.846,27.459,73.573C16.608,95.874,18.346,121.07,30.035,142.944C42.549,166.361,62.274,188.183,88.824,188.409" fill="rgba(28, 83, 142, 0.4)" class="triangle-float3"></path><path d="M1371.4354749811775 91.6850043398286L1305.5097209009368 167.52390905595925 1452.2309550152531 228.49308781825522z" fill="rgba(28, 83, 142, 0.4)" class="triangle-float3"></path><path d="M326.1370741473541 288.00013823066985L179.28033075771302 330.11063176521475 221.3908242922579 476.9673751548558 368.247567681899 434.8568816203109z" fill="rgba(28, 83, 142, 0.4)" class="triangle-float3"></path><path d="M1307.805,607.022C1358.426,604.552,1407.67,588.952,1436.447,547.233C1469.898,498.737,1490.574,435.465,1461.473,384.24C1432.133,332.596,1367.021,316.178,1307.805,320.794C1256.356,324.804,1218.344,361.774,1190.694,405.347C1160.153,453.476,1126.789,511.651,1155.413,560.944C1183.976,610.131,1250.994,609.794,1307.805,607.022" fill="rgba(28, 83, 142, 0.4)" class="triangle-float1"></path><path d="M899.482086065191 298.57147203348245L869.174814885598 166.7231058721029 781.2890558668239 245.8557987287926z" fill="rgba(28, 83, 142, 0.4)" class="triangle-float2"></path><path d="M169.38475834075027 259.54691186589366L232.74470939360833 184.183441310872 148.25754984327466 167.7608011193104z" fill="rgba(28, 83, 142, 0.4)" class="triangle-float3"></path></g><defs><mask id="SvgjsMask1041"><rect width="1440" height="560" fill="#ffffff"></rect></mask><style>
                @keyframes float1 {
                    0%{transform: translate(0, 0)}
                    50%{transform: translate(-10px, 0)}
                    100%{transform: translate(0, 0)}
                }

                .triangle-float1 {
                    animation: float1 5s infinite;
                }

                @keyframes float2 {
                    0%{transform: translate(0, 0)}
                    50%{transform: translate(-5px, -5px)}
                    100%{transform: translate(0, 0)}
                }

                .triangle-float2 {
                    animation: float2 4s infinite;
                }

                @keyframes float3 {
                    0%{transform: translate(0, 0)}
                    50%{transform: translate(0, -10px)}
                    100%{transform: translate(0, 0)}
                }

                .triangle-float3 {
                    animation: float3 6s infinite;
                }
            </style></defs></svg>